<svg height="800" width="800" xmlns="http://www.w3.org/2000/svg" viewBox="0 0 473.931 473.931" xml:space="preserve"><circle style="fill:#4abc96" cx="236.966" cy="236.966" r="236.966"/><circle style="fill:#5b4f3f" cx="236.966" cy="260.651" r="122.228"/><path style="fill:#e9b634" d="M233.052 127.029a5.617 5.617 0 0 1-5.613-5.613v-1.429c-.015-11.308-.022-21.987 6.907-28.928 4.333-4.333 10.642-6.44 19.285-6.44h51.135a5.615 5.615 0 0 1 5.613 5.613 5.615 5.615 0 0 1-5.613 5.613h-51.135c-5.519 0-9.223 1.029-11.341 3.147-3.648 3.652-3.641 11.682-3.626 20.984v1.441a5.616 5.616 0 0 1-5.612 5.612z"/><path style="fill:#e9b634" d="M257.066 84.62h-3.435c-4.318 0-8.06.528-11.255 1.594l5.246 8.576 9.444-10.17zm10.825 0-10.432 11.225h9.467l10.421-11.225zm-40.452 35.367v1.429a5.617 5.617 0 0 0 5.613 5.613 5.617 5.617 0 0 0 5.613-5.613v-1.441c-.007-1.313 0-2.589.007-3.847L228 106.083c-.538 4.366-.568 9.066-.561 13.904zm60.729-35.367-10.421 11.225h9.781l10.421-11.225zm-53.822 6.436c-1.826 1.826-3.143 3.929-4.135 6.215l9.141 8.606c.415-2.376 1.089-4.374 2.163-5.878l-6.073-9.912c-.366.314-.748.625-1.096.969zm73.541-5.489-9.538 10.275h6.417a5.615 5.615 0 0 0 5.613-5.613 5.6 5.6 0 0 0-2.492-4.662z"/><path style="fill:#d89f29" d="M304.766 84.62h-6.817l-10.421 11.225h10.825l9.538-10.275a5.573 5.573 0 0 0-3.125-.95zm-27.419 0-10.421 11.225h10.821l10.421-11.225zm-20.281 0-9.44 10.17-5.246-8.576c-2.69.898-4.977 2.2-6.937 3.873l6.073 9.912c.247-.348.483-.715.775-1.01 2.118-2.114 5.826-3.147 11.341-3.147h3.828l10.428-11.225h-10.821v.003zM228 106.083l10.671 10.047c.03-3.82.168-7.308.681-10.249l-9.141-8.606c-1.163 2.679-1.821 5.653-2.211 8.808z"/><path style="fill:#5b4f3f" d="M271.091 154.351c0 10.159-73.585 10.159-73.585 0v-21.276c0-10.163 8.236-18.398 18.394-18.398h36.796c10.159 0 18.394 8.236 18.394 18.398v21.276z"/><path style="fill:#da8727" d="m321.657 72.972-5.007 14.769 9.317 12.486-15.581-.195-9.002 12.722-4.629-14.877-14.884-4.636 12.729-8.995-.195-15.588 12.487 9.32z"/><path style="fill:#e9b634" d="m315.786 78.846-3.053 8.988 5.68 7.607-9.49-.12-5.477 7.746-2.822-9.063-9.062-2.817 7.745-5.478-.123-9.493 7.614 5.68z"/><path style="fill:#beb8b1" d="M163.923 218.291c-7.117-7.091-5.19-20.572 4.296-30.087 9.493-9.527 22.948-11.498 30.073-4.404 7.117 7.091 5.197 20.561-4.303 30.084-9.479 9.522-22.946 11.497-30.066 4.407z"/></svg>